<svg width="33" height="34" viewBox="0 0 33 34" fill="none" xmlns="http://www.w3.org/2000/svg">
<path d="M19.8911 15.2996V10.2202C19.8911 8.35774 18.4701 6.83391 16.7333 6.83391C14.9966 6.83391 13.5756 8.35774 13.5756 10.2202H10.4178C10.4178 6.47835 13.244 3.44763 16.7333 3.44763C20.2227 3.44763 23.0489 6.47835 23.0489 10.2202V15.2996H24.6278C25.4962 15.2996 26.2067 16.0615 26.2067 16.9928V28.8447C26.2067 29.776 25.4962 30.5379 24.6278 30.5379H8.8389C7.97051 30.5379 7.26001 29.776 7.26001 28.8447V16.9928C7.26001 16.0615 7.97051 15.2996 8.8389 15.2996H19.8911ZM18.3122 27.1516L17.7438 23.5114C18.5491 23.105 19.1017 22.2415 19.1017 21.2256C19.1017 19.8203 18.0438 18.6859 16.7333 18.6859C15.4229 18.6859 14.365 19.8203 14.365 21.2256C14.365 22.2415 14.9176 23.105 15.7229 23.5114L15.1545 27.1516H18.3122Z" fill="black"/>
</svg>
