<svg width="32" height="35" viewBox="0 0 32 35" fill="none" xmlns="http://www.w3.org/2000/svg">
<path d="M24.0078 15.7526H22.4289V10.6732C22.4289 6.94829 19.5869 3.90063 16.1133 3.90063C12.6398 3.90063 9.79779 6.94829 9.79779 10.6732V15.7526H8.2189C7.42946 15.7526 6.64001 16.5992 6.64001 17.4458V29.2978C6.64001 30.1443 7.42946 30.9909 8.2189 30.9909H24.0078C24.7972 30.9909 25.5867 30.1443 25.5867 29.2978V17.4458C25.5867 16.5992 24.7972 15.7526 24.0078 15.7526ZM17.6922 27.6046H14.5345L15.166 23.8797C14.3766 23.5411 13.745 22.5252 13.745 21.6786C13.745 20.3241 14.8502 19.1389 16.1133 19.1389C17.3765 19.1389 18.4817 20.3241 18.4817 21.6786C18.4817 22.6945 18.008 23.5411 17.0607 23.8797L17.6922 27.6046ZM19.2711 15.7526H12.9556V10.6732C12.9556 8.81074 14.3766 7.28692 16.1133 7.28692C17.8501 7.28692 19.2711 8.81074 19.2711 10.6732V15.7526Z" fill="white"/>
</svg>
