<svg width="608" height="322" viewBox="0 0 608 322" fill="none" xmlns="http://www.w3.org/2000/svg">
<g filter="url(#filter0_d_1198_60)">
<path d="M551.118 298.073C551.981 298.403 552.962 298.158 553.562 297.456C578.193 268.685 591.104 236.144 591.006 203.04C590.906 169.488 577.445 136.549 551.987 107.558C526.529 78.5675 489.977 54.5545 446.032 37.9506C402.087 21.3466 352.309 12.7413 301.74 13.0059C251.17 13.2705 201.603 22.3957 158.058 39.4574C114.513 56.5192 78.5368 80.9117 53.7709 110.165C29.005 139.419 16.3294 172.494 17.0273 206.043C17.7161 239.153 31.406 271.563 56.73 300.078C57.3364 300.761 58.3085 300.989 59.1572 300.652V300.652C60.573 300.09 60.9932 298.286 59.9916 297.138C35.8108 269.426 22.7447 238.045 22.078 205.997C21.3923 173.039 33.8449 140.545 58.1749 111.806C82.5049 83.0677 117.848 59.1045 160.627 42.343C203.405 25.5816 252.1 16.617 301.779 16.357C351.459 16.0971 400.361 24.551 443.532 40.8627C486.704 57.1744 522.613 80.7648 547.623 109.245C572.633 137.726 585.856 170.085 585.954 203.047C586.05 235.091 573.736 266.599 550.227 294.556C549.243 295.726 549.691 297.526 551.118 298.073V298.073Z" fill="#F61D3C"/>
<path d="M551.118 298.073C551.981 298.403 552.962 298.158 553.562 297.456C578.193 268.685 591.104 236.144 591.006 203.04C590.906 169.488 577.445 136.549 551.987 107.558C526.529 78.5675 489.977 54.5545 446.032 37.9506C402.087 21.3466 352.309 12.7413 301.74 13.0059C251.17 13.2705 201.603 22.3957 158.058 39.4574C114.513 56.5192 78.5368 80.9117 53.7709 110.165C29.005 139.419 16.3294 172.494 17.0273 206.043C17.7161 239.153 31.406 271.563 56.73 300.078C57.3364 300.761 58.3085 300.989 59.1572 300.652V300.652C60.573 300.09 60.9932 298.286 59.9916 297.138C35.8108 269.426 22.7447 238.045 22.078 205.997C21.3923 173.039 33.8449 140.545 58.1749 111.806C82.5049 83.0677 117.848 59.1045 160.627 42.343C203.405 25.5816 252.1 16.617 301.779 16.357C351.459 16.0971 400.361 24.551 443.532 40.8627C486.704 57.1744 522.613 80.7648 547.623 109.245C572.633 137.726 585.856 170.085 585.954 203.047C586.05 235.091 573.736 266.599 550.227 294.556C549.243 295.726 549.691 297.526 551.118 298.073V298.073Z" stroke="#F61D3C" stroke-width="1.5"/>
</g>
<defs>
<filter id="filter0_d_1198_60" x="0.25" y="0.25" width="607.506" height="321.306" filterUnits="userSpaceOnUse" color-interpolation-filters="sRGB">
<feFlood flood-opacity="0" result="BackgroundImageFix"/>
<feColorMatrix in="SourceAlpha" type="matrix" values="0 0 0 0 0 0 0 0 0 0 0 0 0 0 0 0 0 0 127 0" result="hardAlpha"/>
<feOffset dy="4"/>
<feGaussianBlur stdDeviation="8"/>
<feComposite in2="hardAlpha" operator="out"/>
<feColorMatrix type="matrix" values="0 0 0 0 1 0 0 0 0 1 0 0 0 0 1 0 0 0 1 0"/>
<feBlend mode="normal" in2="BackgroundImageFix" result="effect1_dropShadow_1198_60"/>
<feBlend mode="normal" in="SourceGraphic" in2="effect1_dropShadow_1198_60" result="shape"/>
</filter>
</defs>
</svg>