<svg width="575" height="288" viewBox="0 0 575 288" fill="none" xmlns="http://www.w3.org/2000/svg">
<path d="M534.682 285.073C535.545 285.403 536.525 285.158 537.126 284.456C561.756 255.685 574.667 223.144 574.569 190.04C574.469 156.488 561.009 123.549 535.551 94.5582C510.092 65.5675 473.54 41.5545 429.595 24.9506C385.65 8.34662 335.873 -0.258693 285.303 0.00592197C234.733 0.270537 185.166 9.39569 141.622 26.4574C98.0769 43.5192 62.1002 67.9117 37.3344 97.1652C12.5685 126.419 -0.107145 159.494 0.590812 193.043C1.27962 226.153 14.9695 258.563 40.2935 287.078C40.8999 287.761 41.872 287.989 42.7207 287.652C44.1365 287.09 44.5567 285.286 43.5551 284.138C19.3743 256.426 6.30821 225.045 5.64148 192.997C4.95581 160.039 17.4084 127.545 41.7384 98.8064C66.0684 70.0677 101.412 46.1045 144.19 29.343C186.969 12.5816 235.663 3.617 285.343 3.35704C335.023 3.09709 383.924 11.551 427.096 27.8627C470.267 44.1744 506.176 67.7648 531.186 96.2453C556.196 124.726 569.42 157.085 569.518 190.047C569.613 222.091 557.3 253.599 533.79 281.556C532.807 282.726 533.255 284.526 534.682 285.073Z" fill="#5D5859"/>
</svg>