<svg width="141" height="77" viewBox="0 0 141 77" fill="none" xmlns="http://www.w3.org/2000/svg">
<path d="M6.30109 46.4739C2.78276 55.4639 0.818436 65.2225 0.785339 74.9568H18.8492C18.8799 67.8397 20.2185 60.7963 22.7911 54.2229C25.3938 47.5725 29.2083 41.534 34.0157 36.4552C38.8232 31.3763 44.5288 27.3574 50.8047 24.6305C57.0807 21.9036 63.8025 20.5227 70.5832 20.5679C77.364 20.6131 84.0689 22.0833 90.3122 24.8936C96.5554 27.7039 102.213 31.7984 106.96 36.9408C111.707 42.0832 115.45 48.1721 117.975 54.8565C120.469 61.4638 121.725 68.5245 121.672 75.6417L140.282 75.8896C140.366 66.1559 138.654 56.4986 135.243 47.4644C131.802 38.3527 126.701 30.0552 120.233 23.0492C113.766 16.0431 106.06 10.4668 97.5587 6.6403C89.0579 2.81383 79.9298 0.812507 70.6996 0.75103C61.4862 0.689664 52.1073 3.41657 43.7996 6.61006C34.433 11.6359 28.351 15.4103 21.1868 22.4399C14.6418 29.3553 9.84995 37.4059 6.30109 46.4739Z" stroke="#87888C" stroke-opacity="0.4" stroke-width="0.5"/>
</svg>
