<svg width="20" height="23" viewBox="0 0 20 23" fill="none" xmlns="http://www.w3.org/2000/svg">
<g clip-path="url(#clip0_1108_121)">
<path d="M9.46571 13.1523V13.1524C9.46545 13.509 9.33279 13.8534 9.09306 14.1095C8.85291 14.366 8.52429 14.5131 8.17842 14.5136L8.17795 14.5136L3.19266 14.5101L9.46571 13.1523ZM9.46571 13.1523V9.24516C9.46571 8.50709 8.90207 7.88471 8.17809 7.88471H3.19266C3.02156 7.88471 2.8525 7.92072 2.69525 7.99027C2.53805 8.0598 2.39612 8.16132 2.2772 8.28833C2.15831 8.41531 2.06469 8.56534 2.00107 8.72952C1.93747 8.89366 1.90493 9.06913 1.90504 9.24605M9.46571 13.1523L1.90504 9.24605M1.90504 13.1486C1.90504 13.1487 1.90504 13.1487 1.90504 13.1488C1.90493 13.3257 1.93747 13.5012 2.00107 13.6653C2.06469 13.8295 2.15832 13.9795 2.2772 14.1065C2.39612 14.2335 2.53805 14.335 2.69525 14.4045C2.85246 14.4741 3.02147 14.5101 3.19251 14.5101L2.10959 13.1488L1.90504 13.1486ZM1.90504 13.1486V9.24619M1.90504 13.1486V9.24619M1.90504 9.24619L1.90504 9.24605M1.90504 9.24619L1.90504 9.24605M1.18311 8.65839V8.60637C1.2095 7.75205 1.86373 7.08937 2.64037 7.08937H15.8809C16.2627 7.09002 16.6316 7.25211 16.9059 7.54494C17.1806 7.83824 17.3372 8.23853 17.3376 8.65858V13.7408C17.3376 14.1606 17.1814 14.5607 16.9071 14.854C16.6333 15.1468 16.2647 15.309 15.8832 15.3099H2.64037C1.84796 15.3099 1.18311 14.62 1.18311 13.7408V8.65839ZM18.8671 9.34065L18.6677 9.26511V8.65839C18.6677 7.87814 18.3774 7.12739 17.8569 6.57187C17.3359 6.01591 16.6264 5.70085 15.8836 5.70085H2.64203C1.89919 5.70085 1.1897 6.01591 0.668765 6.57187C0.148253 7.12739 -0.142045 7.87814 -0.142045 8.65839V13.7408C-0.142045 14.5211 0.148253 15.2718 0.668765 15.8273C1.1897 16.3833 1.89919 16.6984 2.64203 16.6984H15.8836C16.6264 16.6984 17.3359 16.3833 17.8569 15.8274C18.3774 15.2718 18.6677 14.5211 18.6677 13.7408V13.1181L18.8543 13.0612L18.8659 13.0576L18.866 13.0581L18.8789 13.0532C19.6026 12.7781 20.1104 12.0466 20.1104 11.1987C20.1104 10.3501 19.6018 9.61892 18.8671 9.34065Z" fill="white" stroke="white" stroke-width="0.409091"/>
</g>
<defs>
<clipPath id="clip0_1108_121">
<rect width="19.8425" height="21.1769" fill="white" transform="translate(0.0625 0.965454)"/>
</clipPath>
</defs>
</svg>
