<svg width="585" height="381" viewBox="0 0 585 381" fill="none" xmlns="http://www.w3.org/2000/svg">
<path d="M544.682 285.073C545.545 285.403 546.525 285.158 547.126 284.456C571.756 255.685 584.667 223.144 584.569 190.04C584.469 156.488 571.009 123.549 545.551 94.5582C520.092 65.5675 483.54 41.5545 439.595 24.9506C395.65 8.34662 345.873 -0.258693 295.303 0.00592197C244.733 0.270537 195.166 9.39569 151.622 26.4574C108.077 43.5192 72.1002 67.9117 47.3344 97.1652C22.5685 126.419 9.89286 159.494 10.5908 193.043C11.2796 226.153 24.9695 258.563 50.2935 287.078C50.8999 287.761 51.872 287.989 52.7207 287.652C54.1365 287.09 54.5567 285.286 53.5551 284.138C29.3743 256.426 16.3082 225.045 15.6415 192.997C14.9558 160.039 27.4084 127.545 51.7384 98.8064C76.0684 70.0677 111.412 46.1045 154.19 29.343C196.969 12.5816 245.663 3.617 295.343 3.35704C345.023 3.09709 393.924 11.551 437.096 27.8627C480.267 44.1744 516.176 67.7648 541.186 96.2453C566.196 124.726 579.42 157.085 579.518 190.047C579.613 222.091 567.3 253.599 543.79 281.556C542.807 282.726 543.255 284.526 544.682 285.073Z" fill="#5D5859"/>
<g filter="url(#filter0_d_1103_1012)">
<path d="M52.7005 285.174C21.6442 255.501 12.997 215.605 12.5554 199.366C12.7678 162.717 23.4275 140.43 27.6732 132.463" stroke="#F61D3C" stroke-width="6" stroke-linecap="round"/>
</g>
<defs>
<filter id="filter0_d_1103_1012" x="-6.44482" y="117.462" width="78.1454" height="190.712" filterUnits="userSpaceOnUse" color-interpolation-filters="sRGB">
<feFlood flood-opacity="0" result="BackgroundImageFix"/>
<feColorMatrix in="SourceAlpha" type="matrix" values="0 0 0 0 0 0 0 0 0 0 0 0 0 0 0 0 0 0 127 0" result="hardAlpha"/>
<feOffset dy="4"/>
<feGaussianBlur stdDeviation="8"/>
<feComposite in2="hardAlpha" operator="out"/>
<feColorMatrix type="matrix" values="0 0 0 0 1 0 0 0 0 1 0 0 0 0 1 0 0 0 0.71 0"/>
<feBlend mode="normal" in2="BackgroundImageFix" result="effect1_dropShadow_1103_1012"/>
<feBlend mode="normal" in="SourceGraphic" in2="effect1_dropShadow_1103_1012" result="shape"/>
</filter>
</defs>
</svg>
