<svg width="142" height="192" viewBox="0 0 142 192" fill="none" xmlns="http://www.w3.org/2000/svg">
<rect y="73" width="142" height="45.1215" rx="7" fill="#484848"/>
<path d="M0.000732422 78.3084C0.000732422 75.3767 2.37739 73 5.30914 73V118.121C2.37739 118.121 0.000732422 115.745 0.000732422 112.813V78.3084Z" fill="#F0C858"/>
<rect width="142" height="45.1215" rx="7" fill="#484848"/>
<path d="M0.000732422 5.30841C0.000732422 2.37666 2.37739 0 5.30914 0V45.1215C2.37739 45.1215 0.000732422 42.7448 0.000732422 39.8131V5.30841Z" fill="#D74444"/>
<rect y="146" width="142" height="45.1215" rx="7" fill="#484848"/>
<path d="M0.000732422 151.308C0.000732422 148.377 2.37739 146 5.30914 146V191.121C2.37739 191.121 0.000732422 188.745 0.000732422 185.813V151.308Z" fill="#80D86F"/>
</svg>
