<svg width="22" height="12" viewBox="0 0 22 12" fill="none" xmlns="http://www.w3.org/2000/svg">
<path d="M10.4032 8.2469V8.24704C10.403 8.60365 10.2703 8.94805 10.0306 9.2041C9.79041 9.46059 9.46179 9.60767 9.11592 9.60823L9.11545 9.60823L4.13016 9.6047L10.4032 8.2469ZM10.4032 8.2469V4.33977C10.4032 3.6017 9.83957 2.97932 9.11559 2.97932H4.13016C3.95906 2.97932 3.79 3.01532 3.63275 3.08487C3.47555 3.15441 3.33362 3.25592 3.2147 3.38293C3.09581 3.50991 3.00219 3.65994 2.93857 3.82413C2.87497 3.98826 2.84243 4.16374 2.84254 4.34065M10.4032 8.2469L2.84254 4.34065M2.84254 8.24322C2.84254 8.24327 2.84254 8.24332 2.84254 8.24337C2.84243 8.42028 2.87497 8.59576 2.93857 8.75989C3.00219 8.92408 3.09582 9.07411 3.2147 9.20109C3.33362 9.32809 3.47555 9.42961 3.63275 9.49915C3.78996 9.56868 3.95897 9.60468 4.13001 9.6047L3.04709 8.24337L2.84254 8.24322ZM2.84254 8.24322V4.3408M2.84254 8.24322V4.3408M2.84254 4.3408L2.84254 4.34065M2.84254 4.3408L2.84254 4.34065M2.12061 3.75299V3.70097C2.147 2.84665 2.80123 2.18398 3.57787 2.18398H16.8184C17.2002 2.18462 17.5691 2.34672 17.8434 2.63954C18.1181 2.93285 18.2747 3.33313 18.2751 3.75318V8.83544C18.2751 9.25516 18.1189 9.65528 17.8446 9.94858C17.5708 10.2414 17.2022 10.4036 16.8207 10.4045H3.57787C2.78546 10.4045 2.12061 9.71464 2.12061 8.83544V3.75299ZM19.8046 4.43525L19.6052 4.35972V3.75299C19.6052 2.97274 19.3149 2.22199 18.7944 1.66648C18.2734 1.11051 17.5639 0.795455 16.8211 0.795455H3.57953C2.83669 0.795455 2.1272 1.11051 1.60626 1.66648C1.08575 2.22199 0.795455 2.97274 0.795455 3.75299V8.83544C0.795455 9.61569 1.08575 10.3664 1.60626 10.922C2.1272 11.4779 2.83669 11.793 3.57953 11.793H16.8211C17.5639 11.793 18.2734 11.4779 18.7944 10.922C19.3149 10.3664 19.6052 9.61569 19.6052 8.83544V8.21269L19.7918 8.15578L19.8034 8.15225L19.8035 8.1527L19.8164 8.1478C20.5401 7.87275 21.0479 7.1412 21.0479 6.29333C21.0479 5.44467 20.5393 4.71352 19.8046 4.43525Z" fill="white" stroke="white" stroke-width="0.409091"/>
</svg>
